# xmcd
#
# Track frame offsets: 
#        150
#        12001
#        24627
#        37366
#        46737
#        57230
#        70112
#        85338
#        95376
#        106375
#        119105
#        130770
#        141309
#        152849
#        163500
#        175703
#        186253
#        195467
#        214864
#        225963
#        237686
#        251132
#        265143
#        277376
#        289294
#
# Disc length: 3993 seconds
#
# Revision: 0
# Processed by: cddbd v1.5.2PL0 Copyright (c) Steve Scherf et al.
# Submitted via: ExactAudioCopy v1.3
#
DISCID=770f9719
DTITLE=Jim Reeves - Jim Reeves . Hows TheWorld Treating You Cd1
DYEAR=1900
DGENRE=Country
TTITLE0=Mexican Joe
TTITLE1=Bimbo
TTITLE2=Four Walls
TTITLE3=Billy Bayou
TTITLE4=He'll Have To Go
TTITLE5=Have I Told You Lately That I Love You
TTITLE6=The Blizzard
TTITLE7=Stand At Your Window
TTITLE8=What I Feel In My heart
TTITLE9=Butterfly Love
TTITLE10=Padre Of San Antone
TTITLE11=Where Does A Broken Heart Go
TTITLE12=Are You The One?
TTITLE13=Let Me Remember
TTITLE14=I've Lived A Lot In My Time
TTITLE15=If You Were Mine
TTITLE16=I Know One
TTITLE17=Spell Of The Yukon
TTITLE18=Men With Broken Hearts
TTITLE19=Too Many Parties Too Many Pals
TTITLE20=Seven Days
TTITLE21=Streets Of Laredo
TTITLE22=Room Full Of Roses
TTITLE23=No One To Cry To
TTITLE24=What Would You Do
EXTD=
EXTT0=
EXTT1=
EXTT2=
EXTT3=
EXTT4=
EXTT5=
EXTT6=
EXTT7=
EXTT8=
EXTT9=
EXTT10=
EXTT11=
EXTT12=
EXTT13=
EXTT14=
EXTT15=
EXTT16=
EXTT17=
EXTT18=
EXTT19=
EXTT20=
EXTT21=
EXTT22=
EXTT23=
EXTT24=
PLAYORDER=
